<?xml version="1.0" standalone="no"?>
<!DOCTYPE svg PUBLIC "-//W3C//DTD SVG 20010904//EN"
 "http://www.w3.org/TR/2001/REC-SVG-20010904/DTD/svg10.dtd">
<svg version="1.0" xmlns="http://www.w3.org/2000/svg"
 width="16.000000pt" height="16.000000pt" viewBox="0 0 16.000000 16.000000"
 preserveAspectRatio="xMidYMid meet">
<metadata>
Created by potrace 1.11, written by Peter Selinger 2001-2013
</metadata>
<g transform="translate(0.000000,16.000000) scale(0.002867,-0.002867)"
fill="#000000" stroke="none">
<path d="M0 2790 l0 -2790 2790 0 2790 0 0 2790 0 2790 -2790 0 -2790 0 0
-2790z m2100 1480 l0 -690 690 0 690 0 0 690 0 690 50 0 50 0 0 -690 0 -690
690 0 690 0 0 -50 0 -50 -690 0 -690 0 0 -690 0 -690 690 0 690 0 0 -50 0 -50
-690 0 -690 0 0 -690 0 -690 -50 0 -50 0 0 690 0 690 -690 0 -690 0 0 -690 0
-690 -50 0 -50 0 0 690 0 690 -690 0 -690 0 0 50 0 50 690 0 690 0 0 690 0
690 -690 0 -690 0 0 50 0 50 690 0 690 0 0 690 0 690 50 0 50 0 0 -690z m792
479 c226 -47 398 -259 398 -489 0 -270 -230 -500 -500 -500 -270 0 -500 230
-500 500 0 225 164 433 383 486 66 16 152 17 219 3z m-1805 -231 l183 -182
183 182 c106 105 191 182 202 182 25 0 55 -29 55 -53 0 -12 -69 -89 -182 -203
l-182 -184 182 -184 c101 -102 182 -191 182 -201 0 -25 -29 -55 -53 -55 -12 0
-89 69 -203 182 l-184 182 -184 -182 c-102 -101 -191 -182 -201 -182 -25 0
-55 29 -55 53 0 12 69 89 182 203 l182 184 -182 184 c-101 102 -182 191 -182
201 0 25 29 55 53 55 12 0 89 -69 204 -182z m285 -2749 c226 -47 398 -259 398
-489 0 -270 -230 -500 -500 -500 -270 0 -500 230 -500 500 0 225 164 433 383
486 66 16 152 17 219 3z m2715 -231 l183 -182 183 182 c106 105 191 182 202
182 25 0 55 -29 55 -53 0 -12 -69 -89 -182 -203 l-182 -184 182 -184 c101
-102 182 -191 182 -201 0 -25 -29 -55 -53 -55 -12 0 -89 69 -203 182 l-184
182 -184 -182 c-102 -101 -191 -182 -201 -182 -25 0 -55 29 -55 53 0 12 69 89
182 203 l182 184 -182 184 c-101 102 -182 191 -182 201 0 25 29 55 53 55 12 0
89 -69 204 -182z"/>
<path d="M2100 2790 l0 -690 690 0 690 0 0 690 0 690 -690 0 -690 0 0 -690z
m507 258 l183 -182 183 182 c106 105 191 182 202 182 25 0 55 -29 55 -53 0
-12 -69 -89 -182 -203 l-182 -184 182 -184 c101 -102 182 -191 182 -201 0 -25
-29 -55 -53 -55 -12 0 -89 69 -203 182 l-184 182 -184 -182 c-102 -101 -191
-182 -201 -182 -25 0 -55 29 -55 53 0 12 69 89 182 203 l182 184 -182 184
c-101 102 -182 191 -182 201 0 25 29 55 53 55 12 0 89 -69 204 -182z"/>
<path d="M2696 4650 c-63 -16 -153 -70 -197 -117 -22 -24 -55 -74 -72 -111
-29 -61 -32 -76 -32 -163 0 -90 2 -99 37 -171 45 -91 103 -147 196 -191 61
-29 76 -32 162 -32 86 0 101 3 162 32 93 44 151 100 196 191 35 72 37 81 37
172 0 91 -2 100 -37 172 -68 136 -188 217 -336 224 -42 2 -94 -1 -116 -6z"/>
<path d="M1176 1670 c-63 -16 -153 -70 -197 -117 -22 -24 -55 -74 -72 -111
-29 -61 -32 -76 -32 -163 0 -90 2 -99 37 -171 45 -91 103 -147 196 -191 61
-29 76 -32 162 -32 86 0 101 3 162 32 93 44 151 100 196 191 35 72 37 81 37
172 0 91 -2 100 -37 172 -68 136 -188 217 -336 224 -42 2 -94 -1 -116 -6z"/>
</g>
</svg>
