# Blender v2.78 (sub 0) OBJ File: 'boardunit.blend'
# www.blender.org
mtllib boardunit.mtl
o BoardUnit
v -1.000000 0.000889 1.000000
v -1.000000 0.089111 1.000000
v -1.000000 0.000889 -1.000000
v -1.000000 0.089111 -1.000000
v 1.000000 0.000889 1.000000
v 1.000000 0.089111 1.000000
v 1.000000 0.000889 -1.000000
v 1.000000 0.089111 -1.000000
vt 0.7500 0.0110
vt 0.7500 0.0000
vt 1.0000 0.0000
vt 1.0000 0.0110
vt 0.0000 0.0110
vt 0.0000 0.0000
vt 0.2500 0.0000
vt 0.2500 0.0110
vt 0.5000 0.0000
vt 0.5000 0.0110
vt 0.0165 0.0196
vt 0.9851 0.0196
vt 0.9851 0.9882
vt 0.0165 0.9882
vt 0.9851 0.9882
vt 0.0165 0.9882
vt 0.0165 0.0196
vt 0.9851 0.0196
vn -1.0000 0.0000 0.0000
vn 0.0000 0.0000 -1.0000
vn 1.0000 0.0000 0.0000
vn 0.0000 0.0000 1.0000
vn 0.0000 -1.0000 0.0000
vn 0.0000 1.0000 0.0000
usemtl BoardUnitTexture
s off
f 1/1/1 2/2/1 4/3/1 3/4/1
f 3/5/2 4/6/2 8/7/2 7/8/2
f 7/8/3 8/7/3 6/9/3 5/10/3
f 5/10/4 6/9/4 2/2/4 1/1/4
f 3/11/5 7/12/5 5/13/5 1/14/5
f 8/15/6 4/16/6 2/17/6 6/18/6
