# Blender v2.78 (sub 0) OBJ File: 'board.blend'
# www.blender.org
mtllib board.mtl
o BoardUnit.008
v -3.000000 0.000889 1.000000
v -3.000000 0.089111 1.000000
v -1.000000 0.000889 1.000000
v -1.000000 0.089111 1.000000
v -3.000000 0.000889 3.000000
v -3.000000 0.089111 3.000000
v -1.000000 0.000889 3.000000
v -1.000000 0.089111 3.000000
vt 0.7500 0.0110
vt 0.7500 0.0000
vt 1.0000 0.0000
vt 1.0000 0.0110
vt 0.0000 0.0110
vt 0.0000 0.0000
vt 0.2500 0.0000
vt 0.2500 0.0110
vt 0.5000 0.0000
vt 0.5000 0.0110
vt 0.0165 0.0196
vt 0.9851 0.0196
vt 0.9851 0.9882
vt 0.0165 0.9882
vt 0.9851 0.9882
vt 0.0165 0.9882
vt 0.0165 0.0196
vt 0.9851 0.0196
vn -0.0000 0.0000 -1.0000
vn 1.0000 0.0000 -0.0000
vn 0.0000 0.0000 1.0000
vn -1.0000 0.0000 0.0000
vn 0.0000 -1.0000 -0.0000
vn 0.0000 1.0000 0.0000
usemtl BoardUnitTexture
s off
f 1/1/1 2/2/1 4/3/1 3/4/1
f 3/5/2 4/6/2 8/7/2 7/8/2
f 7/8/3 8/7/3 6/9/3 5/10/3
f 5/10/4 6/9/4 2/2/4 1/1/4
f 3/11/5 7/12/5 5/13/5 1/14/5
f 8/15/6 4/16/6 2/17/6 6/18/6
o BoardUnit.007
v -3.000000 0.000889 1.000000
v -3.000000 0.089111 1.000000
v -3.000000 0.000889 -1.000000
v -3.000000 0.089111 -1.000000
v -1.000000 0.000889 1.000000
v -1.000000 0.089111 1.000000
v -1.000000 0.000889 -1.000000
v -1.000000 0.089111 -1.000000
vt 0.7500 0.0110
vt 0.7500 0.0000
vt 1.0000 0.0000
vt 1.0000 0.0110
vt 0.0000 0.0110
vt 0.0000 0.0000
vt 0.2500 0.0000
vt 0.2500 0.0110
vt 0.5000 0.0000
vt 0.5000 0.0110
vt 0.0165 0.0196
vt 0.9851 0.0196
vt 0.9851 0.9882
vt 0.0165 0.9882
vt 0.9851 0.9882
vt 0.0165 0.9882
vt 0.0165 0.0196
vt 0.9851 0.0196
vn -1.0000 0.0000 0.0000
vn 0.0000 0.0000 -1.0000
vn 1.0000 0.0000 0.0000
vn 0.0000 0.0000 1.0000
vn 0.0000 -1.0000 0.0000
vn 0.0000 1.0000 0.0000
usemtl BoardUnitTexture_boardunit-texture_003.jpg
s off
f 9/19/7 10/20/7 12/21/7 11/22/7
f 11/23/8 12/24/8 16/25/8 15/26/8
f 15/26/9 16/25/9 14/27/9 13/28/9
f 13/28/10 14/27/10 10/20/10 9/19/10
f 11/29/11 15/30/11 13/31/11 9/32/11
f 16/33/12 12/34/12 10/35/12 14/36/12
o BoardUnit.006
v -1.000000 0.000889 1.000000
v -1.000000 0.089111 1.000000
v -1.000000 0.000889 -1.000000
v -1.000000 0.089111 -1.000000
v 1.000000 0.000889 1.000000
v 1.000000 0.089111 1.000000
v 1.000000 0.000889 -1.000000
v 1.000000 0.089111 -1.000000
vt 0.7500 0.0110
vt 0.7500 0.0000
vt 1.0000 0.0000
vt 1.0000 0.0110
vt 0.0000 0.0110
vt 0.0000 0.0000
vt 0.2500 0.0000
vt 0.2500 0.0110
vt 0.5000 0.0000
vt 0.5000 0.0110
vt 0.0165 0.0196
vt 0.9851 0.0196
vt 0.9851 0.9882
vt 0.0165 0.9882
vt 0.9851 0.9882
vt 0.0165 0.9882
vt 0.0165 0.0196
vt 0.9851 0.0196
vn -1.0000 0.0000 0.0000
vn 0.0000 0.0000 -1.0000
vn 1.0000 0.0000 0.0000
vn 0.0000 0.0000 1.0000
vn 0.0000 -1.0000 0.0000
vn 0.0000 1.0000 0.0000
usemtl BoardUnitTexture_boardunit-texture_001.jpg
s off
f 17/37/13 18/38/13 20/39/13 19/40/13
f 19/41/14 20/42/14 24/43/14 23/44/14
f 23/44/15 24/43/15 22/45/15 21/46/15
f 21/46/16 22/45/16 18/38/16 17/37/16
f 19/47/17 23/48/17 21/49/17 17/50/17
f 24/51/18 20/52/18 18/53/18 22/54/18
o BoardUnit.005
v -1.000000 0.000889 3.000000
v -1.000000 0.089111 3.000000
v -1.000000 0.000889 1.000000
v -1.000000 0.089111 1.000000
v 1.000000 0.000889 3.000000
v 1.000000 0.089111 3.000000
v 1.000000 0.000889 1.000000
v 1.000000 0.089111 1.000000
vt 0.7500 0.0110
vt 0.7500 0.0000
vt 1.0000 0.0000
vt 1.0000 0.0110
vt 0.0000 0.0110
vt 0.0000 0.0000
vt 0.2500 0.0000
vt 0.2500 0.0110
vt 0.5000 0.0000
vt 0.5000 0.0110
vt 0.0165 0.0196
vt 0.9851 0.0196
vt 0.9851 0.9882
vt 0.0165 0.9882
vt 0.9851 0.9882
vt 0.0165 0.9882
vt 0.0165 0.0196
vt 0.9851 0.0196
vn -1.0000 0.0000 0.0000
vn 0.0000 0.0000 -1.0000
vn 1.0000 0.0000 0.0000
vn 0.0000 0.0000 1.0000
vn 0.0000 -1.0000 0.0000
vn 0.0000 1.0000 0.0000
usemtl BoardUnitTexture_boardunit-texture_002.jpg
s off
f 25/55/19 26/56/19 28/57/19 27/58/19
f 27/59/20 28/60/20 32/61/20 31/62/20
f 31/62/21 32/61/21 30/63/21 29/64/21
f 29/64/22 30/63/22 26/56/22 25/55/22
f 27/65/23 31/66/23 29/67/23 25/68/23
f 32/69/24 28/70/24 26/71/24 30/72/24
o BoardUnit.004
v 1.000000 0.000889 1.000000
v 1.000000 0.089111 1.000000
v 3.000000 0.000889 1.000000
v 3.000000 0.089111 1.000000
v 1.000000 0.000889 3.000000
v 1.000000 0.089111 3.000000
v 3.000000 0.000889 3.000000
v 3.000000 0.089111 3.000000
vt 0.7500 0.0110
vt 0.7500 0.0000
vt 1.0000 0.0000
vt 1.0000 0.0110
vt 0.0000 0.0110
vt 0.0000 0.0000
vt 0.2500 0.0000
vt 0.2500 0.0110
vt 0.5000 0.0000
vt 0.5000 0.0110
vt 0.0165 0.0196
vt 0.9851 0.0196
vt 0.9851 0.9882
vt 0.0165 0.9882
vt 0.9851 0.9882
vt 0.0165 0.9882
vt 0.0165 0.0196
vt 0.9851 0.0196
vn -0.0000 0.0000 -1.0000
vn 1.0000 0.0000 0.0000
vn 0.0000 0.0000 1.0000
vn -1.0000 0.0000 0.0000
vn 0.0000 -1.0000 0.0000
vn 0.0000 1.0000 -0.0000
usemtl BoardUnitTexture_boardunit-texture_001.jpg
s off
f 33/73/25 34/74/25 36/75/25 35/76/25
f 35/77/26 36/78/26 40/79/26 39/80/26
f 39/80/27 40/79/27 38/81/27 37/82/27
f 37/82/28 38/81/28 34/74/28 33/73/28
f 35/83/29 39/84/29 37/85/29 33/86/29
f 40/87/30 36/88/30 34/89/30 38/90/30
o BoardUnit.003
v 1.000000 0.000889 1.000000
v 1.000000 0.089111 1.000000
v 1.000000 0.000889 -1.000000
v 1.000000 0.089111 -1.000000
v 3.000000 0.000889 1.000000
v 3.000000 0.089111 1.000000
v 3.000000 0.000889 -1.000000
v 3.000000 0.089111 -1.000000
vt 0.7500 0.0110
vt 0.7500 0.0000
vt 1.0000 0.0000
vt 1.0000 0.0110
vt 0.0000 0.0110
vt 0.0000 0.0000
vt 0.2500 0.0000
vt 0.2500 0.0110
vt 0.5000 0.0000
vt 0.5000 0.0110
vt 0.0165 0.0196
vt 0.9851 0.0196
vt 0.9851 0.9882
vt 0.0165 0.9882
vt 0.9851 0.9882
vt 0.0165 0.9882
vt 0.0165 0.0196
vt 0.9851 0.0196
vn -1.0000 0.0000 0.0000
vn 0.0000 0.0000 -1.0000
vn 1.0000 0.0000 0.0000
vn 0.0000 0.0000 1.0000
vn 0.0000 -1.0000 0.0000
vn 0.0000 1.0000 0.0000
usemtl BoardUnitTexture_boardunit-texture_002.jpg
s off
f 41/91/31 42/92/31 44/93/31 43/94/31
f 43/95/32 44/96/32 48/97/32 47/98/32
f 47/98/33 48/97/33 46/99/33 45/100/33
f 45/100/34 46/99/34 42/92/34 41/91/34
f 43/101/35 47/102/35 45/103/35 41/104/35
f 48/105/36 44/106/36 42/107/36 46/108/36
o BoardUnit.001
v 1.000000 0.000889 -3.000000
v 1.000000 0.089111 -3.000000
v 3.000000 0.000889 -3.000000
v 3.000000 0.089111 -3.000000
v 1.000000 0.000889 -1.000000
v 1.000000 0.089111 -1.000000
v 3.000000 0.000889 -1.000000
v 3.000000 0.089111 -1.000000
vt 0.7500 0.0110
vt 0.7500 0.0000
vt 1.0000 0.0000
vt 1.0000 0.0110
vt 0.0000 0.0110
vt 0.0000 0.0000
vt 0.2500 0.0000
vt 0.2500 0.0110
vt 0.5000 0.0000
vt 0.5000 0.0110
vt 0.0165 0.0196
vt 0.9851 0.0196
vt 0.9851 0.9882
vt 0.0165 0.9882
vt 0.9851 0.9882
vt 0.0165 0.9882
vt 0.0165 0.0196
vt 0.9851 0.0196
vn 0.0000 0.0000 -1.0000
vn 1.0000 0.0000 0.0000
vn 0.0000 0.0000 1.0000
vn -1.0000 0.0000 0.0000
vn 0.0000 -1.0000 0.0000
vn 0.0000 1.0000 -0.0000
usemtl BoardUnitTexture_boardunit-texture_001.jpg
s off
f 49/109/37 50/110/37 52/111/37 51/112/37
f 51/113/38 52/114/38 56/115/38 55/116/38
f 55/116/39 56/115/39 54/117/39 53/118/39
f 53/118/40 54/117/40 50/110/40 49/109/40
f 51/119/41 55/120/41 53/121/41 49/122/41
f 56/123/42 52/124/42 50/125/42 54/126/42
o BoardUnit
v -1.000000 0.000889 -1.000000
v -1.000000 0.089111 -1.000000
v -3.000000 0.000889 -1.000000
v -3.000000 0.089111 -1.000000
v -1.000000 0.000889 -3.000000
v -1.000000 0.089111 -3.000000
v -3.000000 0.000889 -3.000000
v -3.000000 0.089111 -3.000000
vt 0.7500 0.0110
vt 0.7500 0.0000
vt 1.0000 0.0000
vt 1.0000 0.0110
vt 0.0000 0.0110
vt 0.0000 0.0000
vt 0.2500 0.0000
vt 0.2500 0.0110
vt 0.5000 0.0000
vt 0.5000 0.0110
vt 0.0165 0.0196
vt 0.9851 0.0196
vt 0.9851 0.9882
vt 0.0165 0.9882
vt 0.9851 0.9882
vt 0.0165 0.9882
vt 0.0165 0.0196
vt 0.9851 0.0196
vn -0.0000 0.0000 1.0000
vn -1.0000 0.0000 0.0000
vn 0.0000 0.0000 -1.0000
vn 1.0000 0.0000 0.0000
vn 0.0000 -1.0000 0.0000
vn 0.0000 1.0000 -0.0000
usemtl BoardUnitTexture_boardunit-texture_002.jpg
s off
f 57/127/43 58/128/43 60/129/43 59/130/43
f 59/131/44 60/132/44 64/133/44 63/134/44
f 63/134/45 64/133/45 62/135/45 61/136/45
f 61/136/46 62/135/46 58/128/46 57/127/46
f 59/137/47 63/138/47 61/139/47 57/140/47
f 64/141/48 60/142/48 58/143/48 62/144/48
o BoardUnit.002
v -1.000000 0.000889 -1.000000
v -1.000000 0.089111 -1.000000
v -1.000000 0.000889 -3.000000
v -1.000000 0.089111 -3.000000
v 1.000000 0.000889 -1.000000
v 1.000000 0.089111 -1.000000
v 1.000000 0.000889 -3.000000
v 1.000000 0.089111 -3.000000
vt 0.7500 0.0110
vt 0.7500 0.0000
vt 1.0000 0.0000
vt 1.0000 0.0110
vt 0.0000 0.0110
vt 0.0000 0.0000
vt 0.2500 0.0000
vt 0.2500 0.0110
vt 0.5000 0.0000
vt 0.5000 0.0110
vt 0.0165 0.0196
vt 0.9851 0.0196
vt 0.9851 0.9882
vt 0.0165 0.9882
vt 0.9851 0.9882
vt 0.0165 0.9882
vt 0.0165 0.0196
vt 0.9851 0.0196
vn -1.0000 0.0000 0.0000
vn 0.0000 0.0000 -1.0000
vn 1.0000 0.0000 0.0000
vn 0.0000 0.0000 1.0000
vn 0.0000 -1.0000 0.0000
vn 0.0000 1.0000 0.0000
usemtl BoardUnitTexture
s off
f 65/145/49 66/146/49 68/147/49 67/148/49
f 67/149/50 68/150/50 72/151/50 71/152/50
f 71/152/51 72/151/51 70/153/51 69/154/51
f 69/154/52 70/153/52 66/146/52 65/145/52
f 67/155/53 71/156/53 69/157/53 65/158/53
f 72/159/54 68/160/54 66/161/54 70/162/54
