# Blender v2.78 (sub 0) OBJ File: 'cross.blend'
# www.blender.org
mtllib cross.mtl
o Cube
v 0.777817 0.001555 -0.636396
v -0.636396 0.001555 0.777818
v -0.777817 0.001555 0.636396
v 0.636396 0.001555 -0.777818
v 0.777817 0.061555 -0.636396
v -0.636397 0.061555 0.777818
v -0.777817 0.061555 0.636396
v 0.636396 0.061555 -0.777817
v 0.141421 0.001555 0.000000
v -0.000000 0.001555 0.141421
v -0.141421 0.001555 -0.000000
v 0.000000 0.001555 -0.141421
v 0.141421 0.061555 0.000000
v -0.000000 0.061555 0.141421
v -0.141421 0.061555 -0.000000
v -0.000000 0.061555 -0.141421
v -0.777817 0.001555 -0.636396
v -0.636396 0.001555 -0.777818
v -0.777817 0.061555 -0.636396
v -0.636396 0.061555 -0.777818
v 0.777817 0.001555 0.636396
v 0.636396 0.001555 0.777818
v 0.777817 0.061555 0.636396
v 0.636396 0.061555 0.777818
vt 0.5000 0.5909
vt 0.0909 1.0000
vt 0.0000 0.9091
vt 0.4091 0.5000
vt 0.5000 0.4091
vt 0.4091 0.5000
vt 0.0000 0.0909
vt 0.0909 0.0000
vt 0.3800 0.3211
vt 0.3218 0.3793
vt 0.2849 0.3424
vt 0.3431 0.2843
vt 0.2029 0.2605
vt 0.2611 0.2024
vt 0.8258 0.7666
vt 0.7676 0.8247
vt 0.7307 0.7879
vt 0.7889 0.7297
vt 0.6487 0.7060
vt 0.7069 0.6478
vt 0.1660 0.2237
vt 0.2242 0.1655
vt 0.0251 0.0829
vt 0.0833 0.0247
vt 0.6118 0.6691
vt 0.6700 0.6109
vt 0.5909 0.5000
vt 1.0000 0.9091
vt 0.9091 1.0000
vt 1.0000 0.9091
vt 0.9091 1.0000
vt 0.5000 0.5909
vt 0.5909 0.5000
vt 1.0000 0.0909
vt 0.5000 0.4091
vt 0.9091 0.0000
vt 0.9749 0.9156
vt 0.9167 0.9737
vt 0.9085 0.9655
vt 0.9667 0.9074
vt 0.0909 1.0000
vt 0.0000 0.9091
vt 0.0000 0.0909
vt 0.0909 0.0000
vt 0.5291 0.4701
vt 0.4709 0.5283
vt 0.4627 0.5201
vt 0.5209 0.4619
vt 0.9091 0.0000
vt 1.0000 0.0909
vn 0.0000 -1.0000 0.0000
vn 0.0000 1.0000 -0.0000
vn 0.7071 0.0000 0.7071
vn -0.7071 -0.0000 0.7071
vn -0.7071 -0.0000 -0.7071
vn 0.7071 0.0000 -0.7071
usemtl Material
s off
f 10/1/1 2/2/1 3/3/1 11/4/1
f 14/5/2 15/6/2 7/7/2 6/8/2
f 10/9/3 14/10/3 6/11/3 2/12/3
f 2/12/4 6/11/4 7/13/4 3/14/4
f 12/15/5 16/16/5 8/17/5 4/18/5
f 5/19/6 1/20/6 4/18/6 8/17/6
f 3/14/5 7/13/5 15/21/5 11/22/5
f 11/22/4 15/21/4 19/23/4 17/24/4
f 1/20/3 5/19/3 13/25/3 9/26/3
f 10/1/1 9/27/1 21/28/1 22/29/1
f 5/30/2 8/31/2 16/32/2 13/33/2
f 13/33/2 16/32/2 15/6/2 14/5/2
f 1/34/1 9/27/1 12/35/1 4/36/1
f 9/27/1 10/1/1 11/4/1 12/35/1
f 17/37/5 19/38/5 20/39/5 18/40/5
f 16/16/6 12/15/6 18/40/6 20/39/6
f 15/6/2 16/32/2 20/41/2 19/42/2
f 12/35/1 11/4/1 17/43/1 18/44/1
f 21/45/3 23/46/3 24/47/3 22/48/3
f 9/26/6 13/25/6 23/46/6 21/45/6
f 14/10/4 10/9/4 22/48/4 24/47/4
f 13/33/2 14/5/2 24/49/2 23/50/2
